<svg width="27" height="27" viewBox="0 0 27 27" fill="none" xmlns="http://www.w3.org/2000/svg">
<path d="M19.125 2.25H7.875C4.7684 2.25 2.25 4.7684 2.25 7.875V19.125C2.25 22.2316 4.7684 24.75 7.875 24.75H19.125C22.2316 24.75 24.75 22.2316 24.75 19.125V7.875C24.75 4.7684 22.2316 2.25 19.125 2.25Z" stroke="#FDDE12" stroke-width="2" stroke-linecap="round" stroke-linejoin="round"/>
<path d="M17.9999 12.7913C18.1388 13.7276 17.9788 14.6838 17.5429 15.524C17.107 16.3641 16.4172 17.0454 15.5717 17.471C14.7263 17.8965 13.7682 18.0446 12.8337 17.8943C11.8992 17.7439 11.0359 17.3027 10.3666 16.6334C9.69732 15.9641 9.25611 15.1008 9.10574 14.1663C8.95537 13.2318 9.10349 12.2737 9.52903 11.4283C9.95458 10.5828 10.6359 9.89305 11.476 9.45712C12.3162 9.02118 13.2724 8.86126 14.2087 9.0001C15.1637 9.14172 16.0479 9.58674 16.7306 10.2694C17.4133 10.9521 17.8583 11.8363 17.9999 12.7913Z" stroke="#FDDE12" stroke-width="2" stroke-linecap="round" stroke-linejoin="round"/>
<path d="M20.2439 7.22999C20.2613 7.34703 20.2413 7.46655 20.1868 7.57157C20.1323 7.67659 20.0461 7.76175 19.9404 7.81494C19.8347 7.86814 19.7149 7.88665 19.5981 7.86786C19.4813 7.84906 19.3734 7.79391 19.2898 7.71025C19.2061 7.62659 19.1509 7.51868 19.1321 7.40186C19.1133 7.28505 19.1319 7.16529 19.1851 7.05961C19.2382 6.95392 19.3234 6.8677 19.4284 6.81321C19.5334 6.75872 19.653 6.73873 19.77 6.75608C19.8894 6.77379 19.9999 6.82942 20.0852 6.91475C20.1706 7.00009 20.2262 7.11061 20.2439 7.22999Z" stroke="#FDDE12" stroke-width="2" stroke-linecap="round" stroke-linejoin="round"/>
</svg>
