<svg width="190" height="106" viewBox="0 0 190 106" fill="none" xmlns="http://www.w3.org/2000/svg">
<path d="M33.9915 82.9952C31.2619 82.7119 28.9572 81.5606 27.1437 79.5782C25.3267 77.5694 24.3547 75.3247 24.2543 72.9488C24.2898 70.2868 25.1711 67.9731 26.8702 66.0773C28.6104 64.1577 30.9144 63.1697 33.912 63.0574C36.6318 63.1257 38.8088 64.1473 40.5721 66.1819C42.3618 68.218 43.3185 70.5025 43.4148 72.9635C43.4985 75.6966 42.6947 77.9894 40.9461 79.9885C39.2442 82.035 36.9102 83.0231 33.9915 82.9952ZM34.9223 59.7249C31.033 59.7667 27.6377 61.2146 24.8529 64.007C22.0403 66.6285 20.6147 69.9205 20.6147 73.7994C20.6573 77.1975 21.8742 80.1162 24.2166 82.4593C26.4871 84.8498 29.3388 86.149 32.7641 86.3207C36.6458 86.1818 40.0467 84.7165 42.8712 81.966C45.6434 79.3207 47.0487 76.0155 47.0487 72.1338C47.0131 68.7378 45.8192 65.8016 43.5006 63.4055C41.2189 61.0562 38.3434 59.8177 34.9223 59.7249Z" fill="white"/>
<path d="M23.1998 63.0363V60.4644H14.2329V63.0363H15.0486C15.9864 63.0363 16.4818 63.1305 16.6388 63.1731C16.8223 63.2568 16.9151 63.5359 16.9158 63.9762C16.8851 64.8902 16.6862 65.7555 16.2732 66.71L12.6288 78.7129L7.39626 63.0363H9.01785V60.4644H0V63.0663L0.844289 63.0356C1.84976 62.993 2.57683 63.3063 3.02619 63.9525C3.60742 64.847 4.03654 65.8287 4.31983 66.9326L10.8704 86.3206H13.0893L20.9649 63.0363H23.1998Z" fill="white"/>
<path d="M76.4005 82.4795C75.9672 82.199 75.4544 81.6854 74.8711 80.9465L66.7896 70.9385L74.2612 63.0364H77.6733V60.4645H67.8034V63.0364H69.3441L64.9663 68.0177V46.5937L66.3863 44.9519L64.3865 43.3044L57.5017 51.5945L59.4464 53.2489L60.8691 51.5673V83.0091H58.3662V85.5768H68.1795V83.0091H67.3638C66.9159 83.0091 66.4896 82.9916 66.0967 82.9602C65.6878 82.9226 65.4715 82.8423 65.272 82.7391C65.1868 82.7049 64.9663 82.3881 64.9663 81.3484V75.1991L73.2962 85.5768H79.4288V83.0091L78.1394 83.0112C77.1534 82.9365 76.6901 82.7104 76.4005 82.4795Z" fill="white"/>
<path d="M54.9876 82.9624C54.7818 82.9373 54.6164 82.8856 54.4971 82.8089L54.3778 82.7461C54.375 82.7447 54.098 82.5507 54.098 81.354V46.6823L55.5305 45.0482L53.5244 43.3889L46.6445 51.6713L48.5829 53.3292L50.0084 51.6497V83.0091H47.5098V85.5769H56.6072V83.0091H55.7915C55.4872 83.0091 55.2242 82.9938 54.9876 82.9624Z" fill="white"/>
<path d="M124.623 83.0092C124.162 83.0092 123.739 82.9917 123.369 82.9596C122.954 82.9234 122.744 82.8459 122.64 82.7866L122.537 82.7371C122.449 82.7022 122.222 82.3847 122.222 81.3485V69.8962C122.222 68.6946 122.195 67.5224 122.152 66.3013C122.003 65.12 121.581 63.954 120.87 62.7979C119.489 60.8037 117.557 59.7696 115.113 59.7249C113.886 59.7249 112.714 60.018 111.63 60.5971C111.373 60.7353 111.123 60.879 110.882 61.029L111.881 59.8254L109.909 58.1487L103.086 66.4457L105.078 68.1427L106.078 66.9119V83.0092H103.575V85.5769H113.384V83.0092H112.568C112.119 83.0092 111.691 82.9917 111.297 82.9603C110.865 82.9199 110.656 82.8326 110.478 82.7398C110.399 82.7077 110.173 82.3819 110.173 81.3415V68.2899C110.173 66.9502 110.561 65.6482 111.342 64.3915C111.988 63.2528 112.903 62.7071 114.186 62.6757C115.803 62.7078 116.861 63.414 117.542 64.9504C117.697 65.2421 117.828 65.584 117.915 65.891C117.984 66.3041 118.038 66.7297 118.071 67.1379C118.107 68.029 118.129 68.8998 118.129 69.7517V83.0092H115.614V85.5769H125.439V83.0092H124.623Z" fill="white"/>
<path d="M86.2446 64.111C87.5934 63.4118 89.0496 63.0574 90.5651 63.0574C93.3764 63.0839 95.6609 64.03 97.5051 65.9405H83.8143C84.519 65.2065 85.3326 64.5938 86.2446 64.111ZM103.997 76.5395L101.726 75.4921L101.376 76.2073C100.367 78.265 99.0157 79.9104 97.3613 81.0958C95.6588 82.3183 93.6555 82.9561 91.4618 82.9924C88.6442 82.8514 86.1846 81.8159 84.1506 79.9145C82.1195 78.0208 81.1321 75.6847 81.1321 72.7967C81.1698 71.3754 81.4343 70.028 81.9199 68.7832H103.689L103.31 67.6989C102.486 65.3355 101.052 63.3881 99.0269 61.8956C97.0041 60.498 94.6715 59.7674 92.073 59.7249C88.2723 59.7667 84.8993 61.1371 82.0685 63.7795C79.1023 66.3766 77.5652 69.7398 77.501 73.7987C77.5414 77.3893 78.8763 80.3946 81.4524 82.716C83.9169 85.064 86.911 86.2767 90.3712 86.3214C96.6943 86.2432 101.175 83.1968 103.689 77.2679L103.997 76.5395Z" fill="white"/>
<path d="M170.286 16.5578C169.437 16.7364 169.152 16.7992 168.603 15.731C168.267 15.2488 168.353 14.9969 168.381 14.9139C168.617 14.221 170.098 13.7514 170.809 13.526L171.028 13.4535C171.221 13.3725 171.512 13.3335 171.832 13.3335C172.126 13.3335 172.443 13.3663 172.737 13.4304C172.833 14.7694 171.869 15.6165 170.675 16.479C170.54 16.5041 170.411 16.5313 170.286 16.5578ZM189.39 7.22596L189.228 7.01733H188.962C184.289 7.01733 180.33 8.63404 176.503 10.1977L175.776 10.4936C173.049 9.8321 170.588 9.47205 166.366 10.9346C164.844 11.6449 163.219 13.0997 163.221 15.0144C163.194 15.3751 163.198 15.8907 163.544 16.2047C163.886 16.5159 164.317 16.442 164.634 16.3869C164.85 16.3506 164.966 16.3394 165.031 16.352C164.736 18.6629 164.629 21.133 164.526 23.5242C164.469 24.8437 164.412 26.136 164.327 27.3549L164.317 27.4917L164.373 27.6166C164.999 29.0058 166.439 29.5794 167.791 28.9786L168.175 28.8091L168.108 28.3946C167.693 25.8401 167.923 23.0526 168.718 20.7493C169.671 22.1859 169.984 23.9024 170.313 25.7033C170.657 27.5901 171.014 29.5417 172.16 31.2129L172.331 31.6259L172.752 31.418C172.825 31.4229 173.026 31.5129 173.159 31.5722C173.438 31.6964 173.764 31.8422 174.095 31.8422C174.245 31.8422 174.398 31.8115 174.547 31.7348C174.836 31.5848 175.027 31.298 175.108 30.8856L175.129 30.7775L172.949 20.1492C173.255 19.764 173.69 19.3914 174.148 19C174.795 18.4446 175.466 17.8696 175.837 17.2346C176.313 16.7092 176.686 16.0638 176.928 15.3611C177.006 16.8376 176.881 18.3783 176.759 19.884C176.519 22.8663 176.27 25.9504 177.52 28.7065L177.664 29.0254H180.261L180.284 28.5069C180.365 26.7325 180.42 24.9456 180.475 23.1579C180.579 19.7647 180.686 16.2592 180.988 12.9043C182.447 12.3622 188.411 10.1426 189.142 9.88583C189.671 9.70092 189.874 9.34995 189.95 9.08829C190.184 8.29563 189.525 7.39761 189.39 7.22596Z" fill="white"/>
<path d="M156.168 22.1804C156.524 21.4882 156.891 20.7737 157.182 20.0445C157.32 19.9692 157.47 19.8806 157.627 19.7878C158.2 19.448 158.986 18.9826 159.415 19.1284C159.469 19.1458 159.624 19.1982 159.777 19.5212C159.783 20.1673 159.839 20.8337 159.894 21.4798C160.057 23.384 160.21 25.1821 159.242 26.3683C157.858 27.4848 156.373 28.4714 154.842 28.2544C154.191 26.0257 155.152 24.1557 156.168 22.1804ZM144.442 19.3907C144.536 19.3293 144.634 19.2637 144.737 19.1947C145.698 18.5527 147.305 17.4754 148.231 17.7929C148.566 17.9073 148.815 18.2178 149.009 18.7879C149.236 19.3042 149.232 19.852 148.995 20.4158C148.46 21.6927 146.915 22.7609 145.568 23.2766C145.3 23.4126 144.765 23.5347 144.313 23.592C144.209 22.65 144.121 20.7039 144.442 19.3907ZM139.471 35.2515L139.562 35.1441L139.589 35.0059C139.681 34.5419 139.719 34.1205 139.733 33.7178C139.74 33.9216 139.733 34.1198 139.745 34.3256L139.787 34.5049C140.259 35.6199 141.054 36.2535 141.918 36.2535C142.129 36.2535 142.342 36.2165 142.556 36.1391L142.829 36.0414L142.9 35.7602C143.27 34.2858 143.459 32.6838 143.64 31.1347C143.806 29.7162 143.978 28.2537 144.29 26.914C146.489 26.5965 148.61 26.1499 150.454 24.8012C150.156 26.249 150.461 27.8113 150.71 28.5405L150.775 28.6703C152.482 31.1822 154.563 32.3865 156.891 32.1535C159.541 31.4383 161.827 29.7574 163.007 27.6592L163.052 27.5538C163.945 24.6665 163.946 22.149 163.074 19.24C162.882 17.1481 161.232 16.4539 159.776 15.8412C159.091 15.5531 158.444 15.2802 157.971 14.8874L157.82 14.7625H157.623C155.667 14.7625 154.817 16.0952 154.067 17.2702C153.799 17.6896 153.526 18.118 153.204 18.4955C153.141 18.3657 153.079 18.2346 153.018 18.1034C152.647 17.317 152.264 16.5041 151.632 15.7868L151.62 15.7729C150.239 14.3124 148.346 14.3522 146.513 14.3941C145.968 14.4059 145.413 14.4178 144.867 14.3899L144.67 14.3801L144.512 14.4987C144.049 14.8469 143.513 15.1784 142.946 15.5293C140.974 16.7518 138.738 18.1369 138.635 20.9307C138.744 21.8873 139.472 22.2174 140.003 22.4581C140.223 22.5586 140.434 22.6542 140.596 22.7812C140.532 24.3734 140.342 25.9015 140.157 27.3815C139.932 29.1789 139.715 31.0322 139.718 32.9838C139.428 29.5536 136.163 28.5035 133.221 27.5692C131.913 27.154 130.67 26.7598 129.726 26.1883C130.441 23.8906 132.62 22.3548 134.73 20.8672C134.899 20.7479 135.068 20.6293 135.235 20.5113C135.656 20.9977 136.443 21.0689 136.932 21.1135C137.085 21.1268 137.233 21.14 137.365 21.1617L137.448 21.1756L137.531 21.1637C138.496 21.0256 138.546 20.272 138.567 19.9503C138.576 19.8101 138.585 19.6775 138.63 19.6175L138.731 19.4835L138.739 19.3154C138.785 18.3343 138.572 17.6128 138.087 17.1112C137.293 16.2906 136.007 16.3045 134.766 16.3241L134.504 16.3401C132.489 16.8097 125.991 21.1658 125.722 26.1611L125.718 26.2316L125.733 26.3C126.195 28.5551 128.661 29.5062 131.27 30.5123C132.947 31.1592 134.675 31.8262 135.827 32.8484C133.44 35.1706 130.393 35.2641 127.177 35.3618C126.586 35.3799 125.993 35.3981 125.402 35.4308C124.497 34.9152 124.283 33.9202 124.233 33.5036L124.186 33.1115L123.799 33.0347C123.202 32.9161 122.816 33.1164 122.534 33.2615C122.416 33.3222 122.315 33.3745 122.209 33.4011L121.913 33.475L121.822 33.7667C121.341 35.315 121.903 37.3664 123.52 37.9588C124.963 38.4431 126.701 38.6657 128.504 38.6657C132.914 38.6657 137.708 37.3343 139.471 35.2515Z" fill="white"/>
<path d="M170.316 40.9584L169.8 40.9912C169.799 40.9891 169.799 40.9863 169.799 40.9842L170.243 40.8349C170.28 40.867 170.313 40.92 170.316 40.9584ZM184.995 43.7348C184.816 43.7794 184.65 43.8213 184.5 43.852C184.23 43.9092 183.629 43.9825 182.932 44.0669C181.898 44.1925 180.481 44.3642 179.195 44.5993C177.42 44.743 176.011 45.1115 174.769 45.4366C174.21 45.5824 173.668 45.7248 173.121 45.8399C172.711 45.923 172.269 46.0423 171.822 46.1623C171.033 46.3751 170.224 46.5942 169.598 46.6012C169.591 46.5279 169.582 46.4574 169.572 46.3925C169.556 46.2725 169.531 46.0911 169.526 46.0681L169.645 46.0185C170.868 45.4562 172.439 44.787 174.01 44.1172C178.511 42.1983 180.522 41.3017 180.917 40.7609C181.129 40.4714 181.192 40.1378 181.095 39.8224C180.886 39.1379 179.985 38.7821 179.807 38.7179L179.654 38.6628L172.897 40.269C172.553 40.3241 172.15 40.4295 171.743 40.5376C171.291 40.6577 170.542 40.8426 170.276 40.8237L170.331 40.8056C170.331 40.1999 170.522 39.3117 170.635 38.9293L182.981 35.0386L183.129 34.9653C183.204 34.913 183.86 34.4315 183.929 33.6005C183.997 32.8462 183.433 32.309 183.09 32.1094L182.956 32.0312L182.801 32.0368C179.445 32.1429 176.731 32.9321 174.106 33.6947C172.715 34.0994 171.396 34.4825 169.985 34.7734C169.28 34.1364 168.688 33.8852 168.125 33.9864C167.414 34.1162 167.026 34.7602 166.712 35.4363L166.665 35.5968C166.634 35.8403 166.584 36.1501 166.527 36.245C166.511 36.2687 166.498 36.2932 166.485 36.3176L166.204 36.4299C165.241 36.8123 164.408 37.1423 163.9 37.6496L163.82 37.7522C163.395 38.4485 163.351 39.1854 163.698 39.7715C164.053 40.3737 164.769 40.7219 165.627 40.6877L165.772 40.6667L165.304 48.0623V48.3128C165.184 48.5507 164.946 48.7796 164.697 49.0217C164.175 49.5262 163.524 50.1549 163.716 51.1827C163.934 52.3584 164.897 52.3423 165.371 52.2928C165.443 52.7031 165.623 52.9975 165.909 53.1692C166.085 53.276 166.272 53.3171 166.458 53.3171C166.857 53.3171 167.255 53.1259 167.548 52.9738C168.794 53.0596 169.195 52.6187 169.382 51.8707C169.419 51.7192 169.447 51.6167 169.5 51.5357C173.137 50.0258 177.057 48.9819 180.849 47.9723C182.983 47.4036 185.19 46.8161 187.277 46.1602L187.423 46.0897C187.739 45.8727 188.243 45.2071 187.889 44.2455C187.472 43.1145 185.98 43.4871 184.995 43.7348Z" fill="white"/>
<path d="M140.788 39.1514C140.398 38.552 139.617 38.2575 138.329 38.2248L138.036 38.2178L137.868 38.4599C136.724 40.1171 135.762 42.0303 134.833 43.8801C134.179 45.1821 133.555 46.4241 132.918 47.4701C132.137 46.5895 131.37 45.6608 130.625 44.7586L129.992 43.9938C129.975 43.7524 129.97 43.4977 129.964 43.2382C129.941 42.1741 129.915 40.9676 129.156 40.0068L128.993 39.868C127.968 39.3021 127.175 39.1451 126.566 39.3851C126.11 39.5651 125.87 39.9245 125.733 40.2315L125.5 40.3955C125.243 40.5762 125.132 40.7569 125.059 40.8769C125.012 40.953 125.004 40.9642 124.968 40.9907L124.665 41.2056L124.755 41.5663C125.444 44.3099 125.187 47.5266 124.915 50.9324C124.693 53.7129 124.463 56.5884 124.741 59.392L124.755 59.5246L125.759 61.0659L125.867 61.1308C126.357 61.4246 126.952 61.4867 127.46 61.3025C127.902 61.1392 128.23 60.8029 128.382 60.3535L128.425 60.2258L128.404 60.0926C128.091 58.1535 128.402 56.1363 128.731 53.9997C128.893 52.9517 129.06 51.8674 129.148 50.7684C129.181 50.1676 129.386 50.0699 129.55 50.0546C130.074 50.2562 130.407 50.5053 130.542 50.7949C130.773 51.2959 130.487 52.062 130.183 52.8721C129.843 53.7785 129.459 54.8063 129.665 55.7727C129.767 56.6435 131.117 57.1292 131.387 57.2171L131.745 57.3343L135.394 52.7968C135.448 53.6676 135.511 54.5091 135.574 55.3443C135.661 56.5103 135.748 57.6637 135.807 58.8708L135.851 59.0585C135.907 59.1897 135.96 59.3494 136.017 59.5211C136.242 60.1951 136.55 61.1176 137.334 61.472C137.539 61.5634 137.757 61.6095 137.99 61.6095C138.272 61.6095 138.575 61.5411 138.895 61.4057L139.211 61.2718L139.226 60.9299C139.306 59.161 139.445 57.3706 139.578 55.6388C139.849 52.1451 140.128 48.5335 139.964 44.7928L139.927 44.6176C139.682 43.9952 140.068 43.0588 140.441 42.1531C140.88 41.0884 141.333 39.988 140.788 39.1514Z" fill="white"/>
<path d="M145.678 52.8867C145.069 52.3082 144.736 51.5135 144.687 50.5199C144.577 48.3094 145.863 45.9174 146.208 45.556L146.298 45.429C146.677 44.6894 147.031 44.351 147.933 44.5415C149.367 47.0736 149.023 48.9108 147.935 51.182L147.88 51.2532C147.12 52.2468 146.5 52.9613 145.678 52.8867ZM159.419 49.6526C159.343 49.9868 158.867 50.7152 158.151 51.5267L158.164 51.4116C158.29 50.3147 158.23 49.2465 158.173 48.2131C158.078 46.4784 157.986 44.8296 158.807 43.2925C159.822 44.6322 160.021 46.7255 159.419 49.6526ZM162.649 41.6786L158.759 37.3134L158.574 37.1794C156.45 36.2388 153.018 36.6805 151.487 37.6888C150.711 38.2009 150.553 38.7612 150.557 39.1401L150.609 39.3669C151.237 40.6933 152.431 40.6124 153.308 40.5524C153.952 40.5098 154.396 40.4986 154.734 40.7156C154.724 41.8383 154.651 42.991 154.58 44.1096C154.443 46.2754 154.301 48.5159 154.619 50.6029C154.722 51.1527 154.971 51.5588 155.361 51.8093C156.043 52.2496 156.955 52.0745 157.754 51.877L157.853 51.8533C156.557 53.2342 154.654 54.7316 152.887 54.9067C151.369 53.4944 151.738 51.9021 152.202 49.9045C152.599 48.1914 153.049 46.2489 152.049 44.2833C151.803 43.8953 151.568 43.4599 151.327 43.0113C150.362 41.2208 149.16 38.9915 146.607 38.8826L146.449 38.8757L146.312 38.9545C142.079 41.3953 141.082 45.7758 140.48 49.6895L140.471 49.7475L140.474 49.8061C140.641 52.498 141.232 54.5704 143.655 55.9722C145.719 56.7634 148.024 56.4097 149.813 55.0972C149.733 55.9771 149.665 57.2288 150.861 57.7661C151.723 58.1904 152.561 58.3725 153.371 58.3725C156.267 58.3725 158.819 56.0433 160.962 54.0882L161.703 53.4135C164.937 49.9742 163.706 43.9149 162.649 41.6786Z" fill="white"/>
<path d="M0.575638 88.6658L126.415 88.7161L126.415 89.9099L0.575161 89.8597L0.575638 88.6658Z" fill="white"/>
<path d="M89.3504 14.0856C91.8372 15.2746 93.3618 17.6344 93.3618 20.4506C93.3618 23.3791 91.5085 25.9133 89.0119 26.9314C84.1262 28.4936 80.509 33.1575 80.509 38.5665C80.509 45.2901 86.1002 50.7961 92.9647 50.7961C94.4552 50.7961 95.8856 50.5233 97.249 50.0126L103.714 50.7627L97.4653 40.2697V9.32617H89.3196L89.3504 14.0856Z" fill="#FCDD2D"/>
<path d="M79.2649 24.1291C79.3878 23.5577 79.4764 22.9904 79.4764 22.4182C79.4764 18.3531 76.1634 15.0708 72.0648 15.0708C67.9305 15.0708 64.6252 18.3531 64.6252 22.4182C64.6252 24.5457 65.6244 26.5762 67.2335 27.9228L67.6535 56.5017L79.2649 24.1291Z" fill="#FCDD2D"/>
<path d="M72.0645 15.3626C68.1313 15.3626 64.9237 18.5326 64.9237 22.4184C64.9237 24.4105 65.8642 26.3824 67.4314 27.699L67.5312 27.78L67.5375 27.923L67.9366 54.8349L78.9828 24.0267C79.0638 23.6136 79.1775 23.0087 79.1775 22.4184C79.1775 18.5326 75.9853 15.3626 72.0645 15.3626ZM67.9485 56.6002L67.3595 56.5074L66.9332 28.0563C65.2907 26.6377 64.3208 24.541 64.3208 22.4184C64.3208 18.2018 67.7936 14.7646 72.0645 14.7646C76.3188 14.7646 79.7804 18.2018 79.7804 22.4184C79.7804 23.0638 79.6652 23.7064 79.562 24.1837L67.9485 56.6002Z" fill="#264F90"/>
<path d="M89.6504 13.9014C92.1637 15.1783 93.6604 17.6169 93.6604 20.4506C93.6604 23.3839 91.8476 26.1073 89.1285 27.2118C84.2302 28.7755 80.8112 33.438 80.8112 38.5672C80.8112 45.1422 86.2662 50.5038 92.9647 50.5038C94.3826 50.5038 95.7921 50.2414 97.1387 49.7362L97.2057 49.709L103.147 50.4005L97.1611 40.3521V9.62271H89.6267L89.6504 13.9014ZM104.278 51.1241L97.2888 50.3168C95.8911 50.8268 94.4328 51.0878 92.9647 51.0878C85.9278 51.0878 80.209 45.468 80.209 38.5672C80.209 33.1833 83.7941 28.2864 88.9254 26.6508C91.3857 25.6524 93.0631 23.1523 93.0631 20.4506C93.0631 17.7893 91.625 15.5041 89.2192 14.3486L89.0503 14.2656L89.0182 9.02612H97.7674V40.1874L104.278 51.1241Z" fill="#264F90"/>
<path d="M103.795 23.0798C103.678 22.5083 103.592 21.9432 103.592 21.378C103.592 17.3079 106.899 14.0215 111.002 14.0215C115.134 14.0215 118.45 17.3079 118.45 21.378C118.45 23.4999 117.447 25.5303 115.835 26.8742L116.321 52.2273L103.795 23.0798Z" fill="#FCDD2D"/>
<path d="M111.002 14.3187C107.08 14.3187 103.896 17.4844 103.896 21.3779C103.896 21.8517 103.958 22.3576 104.095 23.0191L115.989 50.688L115.53 26.7409L115.64 26.6502C117.213 25.3342 118.149 23.3672 118.149 21.3779C118.149 17.4844 114.939 14.3187 111.002 14.3187ZM116.047 52.341L103.518 23.1935C103.354 22.4378 103.282 21.8908 103.282 21.3779C103.282 17.1614 106.748 13.7207 111.002 13.7207C115.276 13.7207 118.755 17.1614 118.755 21.3779C118.755 23.4928 117.783 25.5896 116.144 27.0088L116.622 52.2189L116.047 52.341Z" fill="#264F90"/>
<path d="M79.387 27.0513L75.8235 36.7081L79.4138 38.419C79.5617 34.9221 80.6224 31.7473 83.2707 29.4825L79.387 27.0513Z" fill="#FCDD2D"/>
<path d="M76.2072 36.5572L79.1371 37.9548C79.3757 34.3676 80.5975 31.5403 82.7787 29.5203L79.5445 27.5023L76.2072 36.5572ZM79.696 38.8835L75.4529 36.8628L79.2243 26.6008L83.7744 29.4393L83.4708 29.7045C81.1403 31.6966 79.8823 34.6327 79.712 38.4341L79.696 38.8835Z" fill="#264F90"/>
<path d="M98.3284 29.1503V31.695L102.341 36.504L107.231 33.2692L103.407 24.6658C101.588 26.6383 100.521 28.2544 98.3284 29.1503Z" fill="#FCDD2D"/>
<path d="M98.6432 31.5857L102.403 36.1057L106.859 33.1689L103.317 25.2102C103.075 25.481 102.835 25.7489 102.615 26.0078C101.393 27.3928 100.341 28.5965 98.6432 29.3452V31.5857ZM102.282 36.9033L98.0312 31.7971V28.9516L98.2148 28.8749C99.9012 28.189 100.894 27.0516 102.152 25.6191C102.476 25.2542 102.813 24.8669 103.18 24.4664L103.498 24.1294L107.607 33.3824L102.282 36.9033Z" fill="#264F90"/>
<path d="M89.8164 25.3887V16.0638L83.4326 16.0345L84.7067 13.9182H85.5001C89.1731 13.9182 92.0862 16.839 92.0862 20.4318C92.0862 22.3981 91.2692 24.2255 89.8164 25.3887Z" fill="#FCDD2D"/>
<path d="M83.9593 15.7387L89.66 15.7715C88.5464 14.803 87.093 14.2099 85.5 14.2099H84.8797L83.9593 15.7387ZM90.1164 16.2132V24.7168C91.186 23.622 91.7875 22.1023 91.7875 20.4318C91.7875 18.8019 91.1533 17.3198 90.1164 16.2132ZM89.5072 26.0251V16.3618L82.905 16.3318L84.5336 13.614H85.5C89.2951 13.614 92.396 16.6758 92.396 20.4318C92.396 22.5146 91.5196 24.4105 90.0054 25.6211L89.5072 26.0251Z" fill="#264F90"/>
<path d="M78.6013 9.77557V14.2608H82.2108L82.1843 15.516L86.2202 9.29272H82.2108V13.5749L78.6013 9.77557Z" fill="#FCDD2D"/>
<path d="M78.9013 13.96H82.171L78.9013 10.5319V13.96ZM82.515 14.3187L82.5095 14.4554L85.671 9.59065H82.515V14.3187ZM81.8605 16.5745L81.9066 14.5566H78.3013V9.02547L81.9122 12.8192V8.99756H86.7714L81.8605 16.5745Z" fill="#264F90"/>
<path d="M88.1355 13.2681L88.1613 9.29231L87.6519 9.29249L85.4332 12.9135C86.4613 12.9774 87.0437 12.9135 88.1355 13.2681Z" fill="#FCDD2D"/>
<path d="M85.9487 12.6406C85.978 12.6406 85.9996 12.6455 86.0282 12.6455C86.6443 12.6671 87.1404 12.6894 87.8354 12.875L87.857 9.59139H87.8194L85.9487 12.6406ZM88.4355 13.6851L88.0392 13.5533C87.2151 13.2825 86.7036 13.2595 86.0059 13.2386C85.8224 13.2302 85.6277 13.2225 85.4114 13.2058L84.9202 13.1842L87.4796 8.99829H88.4676L88.4355 13.6851Z" fill="#264F90"/>
<path d="M98.1531 6.00773C98.3687 6.03773 98.5209 6.07053 98.7037 6.07053C100.256 6.07053 101.525 4.80897 101.525 3.28925C101.525 1.76116 100.256 0.507981 98.7037 0.507981C97.1546 0.507981 95.8729 1.76116 95.8729 3.28925C95.8729 3.82792 96.0585 4.33868 96.3327 4.78804L93.7747 6.87644L93.2325 5.47394C93.9945 4.96178 94.5715 4.06446 94.5715 3.07574C94.5715 1.55462 93.296 0.300049 91.7463 0.300049C90.1994 0.300049 88.9253 1.55462 88.9253 3.07574C88.9253 4.15587 89.5951 5.1139 90.5322 5.55488L90.0431 7.08646L87.3085 4.78804C87.6079 4.33868 87.7949 3.82792 87.7949 3.28925C87.7949 1.76116 86.5159 0.507981 84.9724 0.507981C83.4192 0.507981 82.1423 1.76116 82.1423 3.28925C82.1423 4.80897 83.4192 6.07053 84.9724 6.07053C85.0018 6.07053 85.0562 6.03773 85.1239 6.03773L85.8809 8.48966L97.3933 8.46175L98.1531 6.00773Z" fill="#FCDD2D"/>
<path d="M85.124 5.74047H85.3507L86.1113 8.19449L97.175 8.16309L97.9439 5.67907L98.3486 5.73349C99.9186 5.98539 101.221 4.77687 101.221 3.28854C101.221 1.91186 100.09 0.805913 98.7038 0.805913C97.3096 0.805913 96.1793 1.91186 96.1793 3.28854C96.1793 3.73371 96.323 4.18516 96.5896 4.63173L96.7207 4.84525L93.6555 7.37602L92.8677 5.35601L93.0694 5.22832C93.8062 4.72732 94.2632 3.90955 94.2632 3.07503C94.2632 1.70881 93.1391 0.593096 91.7464 0.593096C90.3551 0.593096 89.2275 1.70881 89.2275 3.07503C89.2275 4.01212 89.7864 4.88013 90.6725 5.2946L90.9035 5.40624L90.1995 7.61047L86.9095 4.84106L87.0581 4.61917C87.3456 4.19214 87.4922 3.74488 87.4922 3.28854C87.4922 1.91186 86.359 0.805913 84.9725 0.805913C83.5819 0.805913 82.4494 1.91186 82.4494 3.28854C82.4494 4.65615 83.5819 5.77048 84.9725 5.77048C84.9684 5.7635 85.0339 5.74047 85.124 5.74047ZM85.6536 8.78899L84.9056 6.36427C83.2107 6.33636 81.8396 4.96526 81.8396 3.28854C81.8396 1.58671 83.2456 0.207932 84.9725 0.207932C86.6904 0.207932 88.1006 1.58671 88.1006 3.28854C88.1006 3.77767 87.9631 4.27238 87.7008 4.72384L89.8931 6.56453L90.1653 5.70698C89.2233 5.15784 88.619 4.14818 88.619 3.07503C88.619 1.38017 90.0222 0 91.7464 0C93.4706 0 94.8759 1.38017 94.8759 3.07503C94.8759 4.02956 94.3881 4.96177 93.599 5.5758L93.9102 6.38032L95.9462 4.71058C95.7027 4.23819 95.575 3.76721 95.575 3.28854C95.575 1.58671 96.9775 0.207932 98.7038 0.207932C100.423 0.207932 101.833 1.58671 101.833 3.28854C101.833 4.9834 100.423 6.36427 98.7038 6.36427C98.5817 6.36427 98.4798 6.35939 98.3695 6.34403L97.6208 8.76108L85.6536 8.78899Z" fill="#264F90"/>
<path d="M98.3284 33.2141V39.3397L120.579 59.8239L98.3284 33.2141Z" fill="#FCDD2D"/>
<path d="M98.6432 39.2135L117.4 56.4928L98.6432 34.0536V39.2135ZM120.375 60.0416L98.0312 39.4703V32.3845L120.821 59.6376L120.375 60.0416Z" fill="#264F90"/>
<path d="M99.2473 41.6165L118.182 71.0682L119.851 60.7469L99.2473 41.6165Z" fill="#FCDD2D"/>
<path d="M100.782 43.4537L118.01 70.2414L119.532 60.8642L100.782 43.4537ZM118.355 71.8944L98.9968 41.7728L99.4573 41.4016L120.174 60.6423L118.355 71.8944Z" fill="#264F90"/>
<path d="M87.4922 50.6162L89.5953 59.916L86.0332 59.8832L86.5168 61.4657C88.0134 61.1105 89.3197 60.7805 90.9252 60.747L90.8966 51.6028C89.5339 51.48 88.5228 51.1549 87.4922 50.6162Z" fill="#FCDD2D"/>
<path d="M86.4406 60.1789L86.7322 61.1098C87.9959 60.8069 89.21 60.5167 90.6202 60.4636L90.5936 51.8672C89.6182 51.764 88.785 51.5365 87.9296 51.1548L89.9671 60.2089L86.4406 60.1789ZM86.3129 61.8166L85.6277 59.5838L89.21 59.6075L87.0581 50.0447L87.6365 50.3447C88.7062 50.9085 89.6935 51.1932 90.9195 51.3055L91.1965 51.3279L91.2321 61.04L90.9321 61.0428C89.42 61.0672 88.1947 61.3651 86.7804 61.7077L86.3129 61.8166Z" fill="#264F90"/>
<path d="M91.9858 51.5672V60.839C93.5642 61.1719 94.7811 61.3777 96.1236 62.0608L96.7208 59.8831L93.3541 59.8545L94.8718 51.5093C93.8091 51.6286 92.9641 51.6879 91.9858 51.5672Z" fill="#FCDD2D"/>
<path d="M92.2877 60.5948L92.4615 60.6318C93.7614 60.9011 94.8045 61.116 95.9307 61.6359L96.3326 60.1769L92.9959 60.1489L94.5045 51.8442C93.7816 51.9126 93.0127 51.9579 92.2877 51.8986V60.5948ZM96.3173 62.4955L95.9775 62.326C94.7983 61.721 93.7118 61.4977 92.3387 61.2193L91.6855 61.0777V51.2337L92.024 51.2734C92.9429 51.3802 93.9316 51.3188 94.8422 51.2155L95.2406 51.1653L93.7153 59.5614L97.1148 59.5872L96.3173 62.4955Z" fill="#264F90"/>
<path d="M95.7279 10.5103C95.8521 10.8096 95.9149 11.1033 95.9149 11.3741C95.9149 12.7215 94.7852 13.7988 93.4211 13.7988C92.0528 13.7988 90.958 12.7215 90.958 11.3741C90.958 11.1033 91.0222 10.8096 91.1136 10.5103H95.7279Z" fill="#FCDD2D"/>
<path d="M91.3423 10.8027C91.2893 11.0232 91.2648 11.2081 91.2648 11.3741C91.2648 12.5499 92.2305 13.4995 93.4216 13.4995C94.6259 13.4995 95.6084 12.5499 95.6084 11.3741C95.6084 11.1941 95.5784 11.0036 95.5198 10.8027H91.3423ZM93.4216 14.0912C91.8963 14.0912 90.6592 12.875 90.6592 11.3741C90.6592 11.0964 90.7129 10.7852 90.8204 10.4217L90.886 10.2117H95.9412L96.0103 10.4022C96.1519 10.7378 96.2175 11.0629 96.2175 11.3741C96.2175 12.875 94.9651 14.0912 93.4216 14.0912Z" fill="#264F90"/>
<path d="M93.499 11.208V13.1617C94.4256 13.0445 95.1088 12.5651 95.1541 11.178L93.499 11.208Z" fill="#264F90"/>
<path d="M140.072 95.2869H137.459V104.807H140.072V95.2869Z" fill="white"/>
<path d="M140.072 91.0605H137.459V93.6632H140.072V91.0605Z" fill="white"/>
<path d="M157.681 98.8202L156.208 98.4665C155.047 98.1797 155.047 98.0994 155.047 97.8636C155.047 97.2223 156.175 97.2147 156.224 97.2147C157.708 97.2147 157.725 97.821 157.732 98.1113L157.748 98.6639H160.297V98.0959C160.297 96.8818 159.472 94.8276 156.375 94.8276C154.046 94.8276 152.481 96.1618 152.481 98.1469C152.481 99.4915 153.309 100.378 154.947 100.782L156.656 101.19C157.967 101.511 157.967 101.671 157.967 101.873C157.967 102.63 156.769 102.668 156.529 102.668C154.865 102.668 154.798 101.953 154.75 101.431L154.702 100.916H152.179L152.205 101.508C152.306 103.864 153.763 105.057 156.538 105.057C158.919 105.057 160.583 103.653 160.583 101.641C160.583 99.7845 159.117 99.1733 157.681 98.8202Z" fill="white"/>
<path d="M167.778 101.091C167.59 102.064 166.997 102.668 166.23 102.668C165.729 102.668 164.398 102.668 164.398 99.9269C164.398 99.3024 164.532 97.2656 166.25 97.2656C167.155 97.2656 167.625 97.685 167.774 98.6255L167.851 99.1042H170.383L170.33 98.4888C170.182 96.7186 169.091 94.8276 166.474 94.8276C163.528 94.8276 161.698 96.8777 161.698 100.178C161.698 103.097 163.501 105.057 166.183 105.057C168.931 105.057 170.126 103.097 170.33 101.262L170.399 100.632H167.868L167.778 101.091Z" fill="white"/>
<path d="M180.086 98.359C180.07 96.1283 178.7 94.8067 176.423 94.8242C175.534 94.8312 174.873 95.1235 174.388 95.4745L174.361 91.8845L171.754 91.9048L171.853 104.838L174.46 104.819L174.42 99.5703C174.406 97.6759 175.429 97.2705 176.289 97.2636C177.212 97.2566 177.468 97.5454 177.475 98.606L177.523 104.795L180.135 104.776L180.086 98.359Z" fill="white"/>
<path d="M144.665 98.6953C144.905 97.888 145.634 97.2656 146.446 97.2656C147.109 97.2656 147.972 97.4282 148.247 98.6953H144.665ZM146.651 94.8276C143.697 94.8276 141.862 96.8777 141.862 100.178C141.862 103.097 143.669 105.057 146.358 105.057C147.884 105.057 148.553 104.699 149.056 104.365C149.995 103.754 150.505 102.822 150.722 102.124H147.892C147.613 102.409 147.178 102.668 146.558 102.668C145.405 102.668 144.766 102.113 144.615 100.974H148.301L148.3 100.987H150.933L150.935 100.974L150.99 100.406C150.99 96.9132 149.367 94.8276 146.651 94.8276Z" fill="white"/>
<path d="M126.388 91.0605V104.807H129.164V99.4532H135.058V96.898H129.164V93.6032H135.863V91.0605H126.388Z" fill="white"/>
</svg>
