<svg width="190" height="106" viewBox="0 0 190 106" fill="none" xmlns="http://www.w3.org/2000/svg">
<path d="M33.9915 82.9951C31.2619 82.7118 28.9572 81.5605 27.1437 79.5782C25.3267 77.5693 24.3547 75.3246 24.2543 72.9488C24.2898 70.2868 25.1711 67.973 26.8702 66.0772C28.6104 64.1577 30.9144 63.1697 33.912 63.0573C36.6318 63.1257 38.8088 64.1472 40.5721 66.1819C42.3618 68.218 43.3185 70.5024 43.4148 72.9634C43.4985 75.6966 42.6947 77.9894 40.9461 79.9885C39.2442 82.035 36.9102 83.023 33.9915 82.9951ZM34.9223 59.7248C31.033 59.7667 27.6377 61.2145 24.8529 64.007C22.0403 66.6285 20.6147 69.9205 20.6147 73.7993C20.6573 77.1974 21.8742 80.1162 24.2166 82.4592C26.4871 84.8498 29.3388 86.149 32.7641 86.3206C36.6458 86.1818 40.0467 84.7165 42.8712 81.9659C45.6434 79.3207 47.0487 76.0154 47.0487 72.1338C47.0131 68.7378 45.8192 65.8016 43.5006 63.4055C41.2189 61.0561 38.3434 59.8176 34.9223 59.7248Z" fill="#264F90"/>
<path d="M23.1998 63.0363V60.4644H14.2329V63.0363H15.0486C15.9864 63.0363 16.4818 63.1305 16.6388 63.1731C16.8223 63.2568 16.9151 63.5359 16.9158 63.9762C16.8851 64.8902 16.6862 65.7555 16.2732 66.71L12.6288 78.7129L7.39626 63.0363H9.01785V60.4644H0V63.0663L0.844289 63.0356C1.84976 62.993 2.57683 63.3063 3.02619 63.9525C3.60742 64.847 4.03654 65.8287 4.31983 66.9326L10.8704 86.3206H13.0893L20.9649 63.0363H23.1998Z" fill="#264F90"/>
<path d="M76.4003 82.4794C75.967 82.1989 75.4541 81.6854 74.8708 80.9464L66.7893 70.9385L74.261 63.0363H77.673V60.4644H67.8032V63.0363H69.3438L64.9661 68.0176V46.5936L66.386 44.9518L64.3863 43.3044L57.5015 51.5945L59.4461 53.2489L60.8689 51.5673V83.009H58.366V85.5768H68.1793V83.009H67.3636C66.9156 83.009 66.4893 82.9916 66.0965 82.9602C65.6876 82.9225 65.4713 82.8423 65.2717 82.739C65.1866 82.7048 64.9661 82.388 64.9661 81.3484V75.199L73.296 85.5768H79.4286V83.009L78.1391 83.0111C77.1532 82.9365 76.6899 82.7104 76.4003 82.4794Z" fill="#264F90"/>
<path d="M54.9876 82.9623C54.7818 82.9371 54.6164 82.8855 54.4971 82.8088L54.3778 82.746C54.375 82.7446 54.098 82.5506 54.098 81.3539V46.6822L55.5305 45.0481L53.5244 43.3888L46.6445 51.6712L48.5829 53.3291L50.0084 51.6496V83.009H47.5098V85.5768H56.6072V83.009H55.7915C55.4872 83.009 55.2242 82.9937 54.9876 82.9623Z" fill="#264F90"/>
<path d="M124.623 83.0091C124.162 83.0091 123.739 82.9916 123.369 82.9595C122.954 82.9233 122.744 82.8458 122.64 82.7865L122.537 82.737C122.449 82.7021 122.222 82.3846 122.222 81.3484V69.8961C122.222 68.6945 122.195 67.5223 122.152 66.3012C122.003 65.1199 121.581 63.954 120.87 62.7978C119.489 60.8036 117.557 59.7695 115.113 59.7248C113.886 59.7248 112.714 60.0179 111.63 60.597C111.373 60.7352 111.123 60.8789 110.882 61.0289L111.881 59.8253L109.909 58.1486L103.086 66.4457L105.078 68.1426L106.078 66.9118V83.0091H103.575V85.5768H113.384V83.0091H112.568C112.119 83.0091 111.691 82.9916 111.297 82.9602C110.865 82.9198 110.656 82.8326 110.478 82.7398C110.399 82.7077 110.173 82.3818 110.173 81.3414V68.2898C110.173 66.9501 110.561 65.6481 111.342 64.3915C111.988 63.2527 112.903 62.7071 114.186 62.6757C115.803 62.7078 116.861 63.4139 117.542 64.9504C117.697 65.242 117.828 65.5839 117.915 65.8909C117.984 66.304 118.038 66.7296 118.071 67.1378C118.107 68.0289 118.129 68.8997 118.129 69.7516V83.0091H115.614V85.5768H125.439V83.0091H124.623Z" fill="#264F90"/>
<path d="M86.2446 64.1109C87.5934 63.4118 89.0496 63.0573 90.5651 63.0573C93.3764 63.0838 95.6609 64.03 97.5051 65.9405H83.8143C84.519 65.2064 85.3326 64.5938 86.2446 64.1109ZM103.997 76.5394L101.726 75.4921L101.376 76.2073C100.367 78.265 99.0157 79.9103 97.3613 81.0958C95.6588 82.3183 93.6555 82.956 91.4618 82.9923C88.6442 82.8514 86.1846 81.8159 84.1506 79.9145C82.1195 78.0208 81.1321 75.6847 81.1321 72.7967C81.1698 71.3753 81.4343 70.0279 81.9199 68.7831H103.689L103.31 67.6988C102.486 65.3355 101.052 63.3881 99.0269 61.8956C97.0041 60.4979 94.6715 59.7674 92.073 59.7248C88.2723 59.7667 84.8993 61.1371 82.0685 63.7795C79.1023 66.3766 77.5652 69.7398 77.501 73.7986C77.5414 77.3893 78.8763 80.3946 81.4524 82.716C83.9169 85.064 86.911 86.2767 90.3712 86.3213C96.6943 86.2432 101.175 83.1968 103.689 77.2679L103.997 76.5394Z" fill="#264F90"/>
<path d="M170.286 16.5579C169.437 16.7365 169.152 16.7993 168.603 15.731C168.267 15.2489 168.353 14.997 168.381 14.9139C168.617 14.2211 170.098 13.7515 170.809 13.5261L171.028 13.4535C171.221 13.3726 171.512 13.3335 171.832 13.3335C172.126 13.3335 172.443 13.3663 172.737 13.4305C172.833 14.7695 171.869 15.6166 170.675 16.479C170.54 16.5041 170.411 16.5314 170.286 16.5579ZM189.39 7.22603L189.228 7.0174H188.962C184.289 7.0174 180.33 8.63411 176.503 10.1978L175.776 10.4936C173.049 9.83216 170.588 9.47212 166.366 10.9346C164.844 11.6449 163.219 13.0998 163.221 15.0144C163.194 15.3752 163.198 15.8908 163.544 16.2048C163.886 16.516 164.317 16.442 164.634 16.3869C164.85 16.3506 164.966 16.3395 165.031 16.352C164.736 18.663 164.629 21.1331 164.526 23.5243C164.469 24.8438 164.412 26.136 164.327 27.355L164.317 27.4918L164.373 27.6167C164.999 29.0059 166.439 29.5795 167.791 28.9787L168.175 28.8091L168.108 28.3947C167.693 25.8402 167.923 23.0526 168.718 20.7493C169.671 22.186 169.984 23.9025 170.313 25.7034C170.657 27.5902 171.014 29.5418 172.16 31.2129L172.331 31.626L172.752 31.4181C172.825 31.4229 173.026 31.513 173.159 31.5723C173.438 31.6965 173.764 31.8423 174.095 31.8423C174.245 31.8423 174.398 31.8116 174.547 31.7348C174.836 31.5848 175.027 31.298 175.108 30.8857L175.129 30.7775L172.949 20.1492C173.255 19.7641 173.69 19.3915 174.148 19C174.795 18.4446 175.466 17.8697 175.837 17.2347C176.313 16.7093 176.686 16.0639 176.928 15.3612C177.006 16.8377 176.881 18.3783 176.759 19.8841C176.519 22.8663 176.27 25.9504 177.52 28.7066L177.664 29.0254H180.261L180.284 28.507C180.365 26.7326 180.42 24.9456 180.475 23.158C180.579 19.7648 180.686 16.2592 180.988 12.9044C182.447 12.3622 188.411 10.1427 189.142 9.88589C189.671 9.70098 189.874 9.35001 189.95 9.08835C190.184 8.29569 189.525 7.39767 189.39 7.22603Z" fill="#264F90"/>
<path d="M156.168 22.1804C156.524 21.4882 156.891 20.7737 157.182 20.0446C157.32 19.9692 157.47 19.8806 157.627 19.7878C158.2 19.448 158.986 18.9826 159.415 19.1284C159.469 19.1459 159.624 19.1982 159.777 19.5213C159.783 20.1674 159.839 20.8337 159.894 21.4799C160.057 23.3841 160.21 25.1822 159.242 26.3684C157.858 27.4848 156.373 28.4714 154.842 28.2544C154.191 26.0258 155.152 24.1558 156.168 22.1804ZM144.442 19.3908C144.536 19.3294 144.634 19.2638 144.737 19.1947C145.698 18.5528 147.305 17.4754 148.231 17.7929C148.566 17.9073 148.815 18.2178 149.009 18.7879C149.236 19.3042 149.232 19.852 148.995 20.4158C148.46 21.6927 146.915 22.761 145.568 23.2766C145.3 23.4127 144.765 23.5348 144.313 23.592C144.209 22.65 144.121 20.704 144.442 19.3908ZM139.471 35.2516L139.562 35.1441L139.589 35.0059C139.681 34.5419 139.719 34.1205 139.733 33.7179C139.74 33.9216 139.733 34.1198 139.745 34.3256L139.787 34.505C140.259 35.62 141.054 36.2535 141.918 36.2535C142.129 36.2535 142.342 36.2166 142.556 36.1391L142.829 36.0414L142.9 35.7602C143.27 34.2859 143.459 32.6838 143.64 31.1348C143.806 29.7162 143.978 28.2537 144.29 26.914C146.489 26.5965 148.61 26.15 150.454 24.8012C150.156 26.2491 150.461 27.8113 150.71 28.5405L150.775 28.6703C152.482 31.1822 154.563 32.3866 156.891 32.1535C159.541 31.4383 161.827 29.7574 163.007 27.6592L163.052 27.5539C163.945 24.6665 163.946 22.149 163.074 19.2401C162.882 17.1482 161.232 16.4539 159.776 15.8413C159.091 15.5531 158.444 15.2803 157.971 14.8874L157.82 14.7625H157.623C155.667 14.7625 154.817 16.0953 154.067 17.2703C153.799 17.6896 153.526 18.1181 153.204 18.4955C153.141 18.3658 153.079 18.2346 153.018 18.1034C152.647 17.317 152.264 16.5041 151.632 15.7868L151.62 15.7729C150.239 14.3125 148.346 14.3522 146.513 14.3941C145.968 14.406 145.413 14.4178 144.867 14.3899L144.67 14.3802L144.512 14.4988C144.049 14.847 143.513 15.1784 142.946 15.5294C140.974 16.7518 138.738 18.1369 138.635 20.9307C138.744 21.8874 139.472 22.2174 140.003 22.4581C140.223 22.5586 140.434 22.6542 140.596 22.7812C140.532 24.3735 140.342 25.9016 140.157 27.3815C139.932 29.179 139.715 31.0322 139.718 32.9838C139.428 29.5536 136.163 28.5035 133.221 27.5692C131.913 27.1541 130.67 26.7598 129.726 26.1884C130.441 23.8906 132.62 22.3549 134.73 20.8672C134.899 20.7479 135.068 20.6293 135.235 20.5114C135.656 20.9977 136.443 21.0689 136.932 21.1135C137.085 21.1268 137.233 21.1401 137.365 21.1617L137.448 21.1756L137.531 21.1638C138.496 21.0256 138.546 20.272 138.567 19.9504C138.576 19.8101 138.585 19.6776 138.63 19.6175L138.731 19.4836L138.739 19.3154C138.785 18.3344 138.572 17.6129 138.087 17.1112C137.293 16.2906 136.007 16.3046 134.766 16.3241L134.504 16.3402C132.489 16.8098 125.991 21.1659 125.722 26.1611L125.718 26.2316L125.733 26.3C126.195 28.5552 128.661 29.5062 131.27 30.5124C132.947 31.1592 134.675 31.8263 135.827 32.8485C133.44 35.1706 130.393 35.2641 127.177 35.3618C126.586 35.3799 125.993 35.3981 125.402 35.4309C124.497 34.9152 124.283 33.9202 124.233 33.5037L124.186 33.1115L123.799 33.0348C123.202 32.9162 122.816 33.1164 122.534 33.2615C122.416 33.3222 122.315 33.3746 122.209 33.4011L121.913 33.4751L121.822 33.7667C121.341 35.3151 121.903 37.3665 123.52 37.9589C124.963 38.4431 126.701 38.6657 128.504 38.6657C132.914 38.6657 137.708 37.3344 139.471 35.2516Z" fill="#264F90"/>
<path d="M170.316 40.9585L169.8 40.9913C169.799 40.9892 169.799 40.9864 169.799 40.9843L170.243 40.835C170.28 40.8671 170.313 40.9201 170.316 40.9585ZM184.995 43.7349C184.816 43.7795 184.65 43.8214 184.5 43.8521C184.23 43.9093 183.629 43.9826 182.932 44.067C181.897 44.1926 180.48 44.3643 179.194 44.5994C177.42 44.7431 176.01 45.1116 174.768 45.4367C174.21 45.5825 173.667 45.7249 173.12 45.84C172.711 45.923 172.269 46.0424 171.822 46.1624C171.033 46.3752 170.224 46.5943 169.598 46.6013C169.591 46.528 169.581 46.4575 169.572 46.3926C169.555 46.2726 169.531 46.0912 169.526 46.0682L169.645 46.0186C170.867 45.4562 172.439 44.7871 174.01 44.1172C178.511 42.1984 180.522 41.3018 180.917 40.761C181.129 40.4714 181.191 40.1379 181.095 39.8225C180.886 39.138 179.985 38.7822 179.807 38.718L179.654 38.6629L172.896 40.2691C172.553 40.3242 172.15 40.4296 171.742 40.5377C171.291 40.6578 170.541 40.8427 170.276 40.8238L170.331 40.8057C170.331 40.2 170.522 39.3118 170.635 38.9294L182.98 35.0387L183.128 34.9654C183.204 34.9131 183.86 34.4316 183.929 33.6006C183.997 32.8463 183.433 32.309 183.09 32.1095L182.955 32.0313L182.8 32.0369C179.445 32.143 176.731 32.9321 174.106 33.6948C172.715 34.0995 171.396 34.4826 169.985 34.7735C169.28 34.1365 168.687 33.8853 168.124 33.9865C167.414 34.1162 167.025 34.7603 166.711 35.4364L166.665 35.5969C166.633 35.8404 166.584 36.1502 166.527 36.2451C166.511 36.2688 166.498 36.2933 166.485 36.3177L166.203 36.43C165.241 36.8124 164.408 37.1424 163.899 37.6497L163.82 37.7523C163.395 38.4486 163.35 39.1855 163.698 39.7716C164.052 40.3738 164.769 40.7219 165.627 40.6878L165.772 40.6668L165.303 48.0624V48.3129C165.184 48.5508 164.946 48.7797 164.697 49.0218C164.174 49.5263 163.523 50.155 163.716 51.1828C163.934 52.3585 164.897 52.3424 165.371 52.2929C165.443 52.7032 165.623 52.9976 165.908 53.1693C166.085 53.276 166.272 53.3172 166.458 53.3172C166.857 53.3172 167.255 53.126 167.548 52.9739C168.794 53.0597 169.195 52.6188 169.382 51.8708C169.419 51.7193 169.447 51.6168 169.5 51.5358C173.136 50.0259 177.056 48.982 180.849 47.9724C182.982 47.4037 185.19 46.8162 187.277 46.1603L187.422 46.0898C187.738 45.8728 188.243 45.2071 187.888 44.2456C187.472 43.1146 185.98 43.4872 184.995 43.7349Z" fill="#264F90"/>
<path d="M140.788 39.1513C140.398 38.5519 139.617 38.2575 138.329 38.2247L138.036 38.2177L137.868 38.4598C136.724 40.117 135.762 42.0303 134.833 43.88C134.179 45.1821 133.555 46.4241 132.918 47.47C132.137 46.5894 131.37 45.6607 130.625 44.7585L129.992 43.9938C129.975 43.7523 129.97 43.4977 129.964 43.2381C129.941 42.174 129.915 40.9676 129.156 40.0068L128.993 39.8679C127.968 39.302 127.175 39.145 126.566 39.3851C126.11 39.5651 125.87 39.9244 125.733 40.2314L125.5 40.3954C125.243 40.5761 125.132 40.7569 125.059 40.8769C125.012 40.9529 125.004 40.9641 124.968 40.9906L124.665 41.2055L124.755 41.5663C125.444 44.3099 125.187 47.5265 124.915 50.9323C124.693 53.7129 124.463 56.5883 124.741 59.3919L124.755 59.5245L125.759 61.0659L125.867 61.1308C126.357 61.4245 126.952 61.4866 127.46 61.3024C127.902 61.1391 128.23 60.8028 128.382 60.3535L128.425 60.2258L128.404 60.0925C128.091 58.1534 128.402 56.1362 128.731 53.9997C128.893 52.9516 129.06 51.8673 129.148 50.7683C129.181 50.1676 129.386 50.0699 129.55 50.0545C130.074 50.2562 130.407 50.5053 130.542 50.7948C130.773 51.2958 130.487 52.062 130.183 52.8721C129.843 53.7785 129.459 54.8063 129.665 55.7727C129.767 56.6435 131.117 57.1291 131.387 57.217L131.745 57.3342L135.394 52.7967C135.448 53.6675 135.511 54.509 135.574 55.3442C135.661 56.5102 135.748 57.6636 135.807 58.8707L135.851 59.0584C135.907 59.1896 135.96 59.3494 136.017 59.521C136.242 60.1951 136.55 61.1175 137.334 61.472C137.539 61.5634 137.757 61.6094 137.99 61.6094C138.272 61.6094 138.575 61.541 138.895 61.4057L139.211 61.2717L139.226 60.9298C139.306 59.161 139.445 57.3705 139.578 55.6387C139.849 52.145 140.128 48.5334 139.964 44.7927L139.927 44.6176C139.682 43.9952 140.068 43.0588 140.441 42.1531C140.88 41.0883 141.333 39.9879 140.788 39.1513Z" fill="#264F90"/>
<path d="M145.678 52.8867C145.069 52.3083 144.736 51.5135 144.687 50.5199C144.578 48.3094 145.863 45.9175 146.208 45.5561L146.298 45.4291C146.677 44.6895 147.032 44.351 147.933 44.5415C149.367 47.0737 149.024 48.9109 147.935 51.1821L147.88 51.2533C147.12 52.2469 146.501 52.9614 145.678 52.8867ZM159.42 49.6526C159.344 49.9868 158.868 50.7153 158.151 51.5268L158.164 51.4117C158.29 50.3148 158.231 49.2465 158.173 48.2131C158.078 46.4785 157.986 44.8297 158.807 43.2925C159.822 44.6322 160.021 46.7255 159.42 49.6526ZM162.649 41.6786L158.759 37.3134L158.575 37.1795C156.45 36.2389 153.018 36.6806 151.487 37.6888C150.711 38.201 150.553 38.7613 150.557 39.1402L150.61 39.3669C151.238 40.6934 152.431 40.6124 153.309 40.5524C153.952 40.5099 154.396 40.4987 154.734 40.7157C154.724 41.8384 154.651 42.9911 154.58 44.1096C154.443 46.2755 154.301 48.516 154.62 50.603C154.722 51.1528 154.971 51.5589 155.361 51.8094C156.043 52.2497 156.955 52.0745 157.755 51.8771L157.853 51.8534C156.557 53.2342 154.654 54.7316 152.887 54.9068C151.369 53.4945 151.738 51.9022 152.202 49.9045C152.599 48.1915 153.05 46.2489 152.049 44.2834C151.803 43.8954 151.568 43.46 151.328 43.0113C150.362 41.2209 149.16 38.9915 146.607 38.8827L146.449 38.8757L146.312 38.9546C142.079 41.3953 141.082 45.7759 140.48 49.6896L140.471 49.7475L140.475 49.8061C140.641 52.4981 141.232 54.5704 143.655 55.9722C145.72 56.7635 148.024 56.4097 149.813 55.0972C149.733 55.9771 149.666 57.2289 150.861 57.7662C151.723 58.1904 152.561 58.3725 153.371 58.3725C156.267 58.3725 158.819 56.0434 160.962 54.0883L161.703 53.4135C164.937 49.9743 163.707 43.9149 162.649 41.6786Z" fill="#264F90"/>
<path d="M0.575882 88.6658L126.416 88.7161L126.415 89.9099L0.575405 89.8597L0.575882 88.6658Z" fill="#264F90"/>
<path d="M89.3501 14.0856C91.8369 15.2746 93.3615 17.6344 93.3615 20.4506C93.3615 23.3791 91.5083 25.9134 89.0117 26.9314C84.126 28.4937 80.5088 33.1575 80.5088 38.5665C80.5088 45.2902 86.0999 50.7962 92.9645 50.7962C94.4549 50.7962 95.8853 50.5234 97.2488 50.0126L103.713 50.7627L97.4651 40.2698V9.3262H89.3194L89.3501 14.0856Z" fill="#FCDD2D"/>
<path d="M79.2647 24.1292C79.3875 23.5577 79.4761 22.9904 79.4761 22.4183C79.4761 18.3531 76.1632 15.0709 72.0645 15.0709C67.9303 15.0709 64.625 18.3531 64.625 22.4183C64.625 24.5457 65.6242 26.5762 67.2332 27.9229L67.6533 56.5018L79.2647 24.1292Z" fill="#FCDD2D"/>
<path d="M72.0645 15.3625C68.1313 15.3625 64.9237 18.5325 64.9237 22.4183C64.9237 24.4104 65.8642 26.3823 67.4314 27.6989L67.5312 27.7799L67.5375 27.9229L67.9366 54.8348L78.9828 24.0266C79.0638 23.6135 79.1775 23.0086 79.1775 22.4183C79.1775 18.5325 75.9853 15.3625 72.0645 15.3625ZM67.9485 56.6002L67.3595 56.5074L66.9332 28.0562C65.2907 26.6376 64.3208 24.5409 64.3208 22.4183C64.3208 18.2017 67.7936 14.7646 72.0645 14.7646C76.3188 14.7646 79.7804 18.2017 79.7804 22.4183C79.7804 23.0637 79.6652 23.7063 79.562 24.1836L67.9485 56.6002Z" fill="#264F90"/>
<path d="M89.6504 13.9015C92.1637 15.1784 93.6604 17.617 93.6604 20.4506C93.6604 23.384 91.8476 26.1074 89.1285 27.2119C84.2302 28.7756 80.8112 33.4381 80.8112 38.5673C80.8112 45.1423 86.2662 50.5039 92.9647 50.5039C94.3826 50.5039 95.7921 50.2415 97.1387 49.7363L97.2057 49.7091L103.147 50.4006L97.1611 40.3522V9.6228H89.6267L89.6504 13.9015ZM104.278 51.1242L97.2888 50.3169C95.8911 50.8269 94.4328 51.0879 92.9647 51.0879C85.9278 51.0879 80.209 45.4681 80.209 38.5673C80.209 33.1834 83.7941 28.2865 88.9254 26.6509C91.3857 25.6524 93.0631 23.1524 93.0631 20.4506C93.0631 17.7894 91.625 15.5042 89.2192 14.3487L89.0503 14.2657L89.0182 9.02621H97.7674V40.1875L104.278 51.1242Z" fill="#264F90"/>
<path d="M103.795 23.0799C103.678 22.5084 103.592 21.9432 103.592 21.378C103.592 17.308 106.899 14.0215 111.003 14.0215C115.134 14.0215 118.451 17.308 118.451 21.378C118.451 23.4999 117.447 25.5304 115.835 26.8743L116.322 52.2274L103.795 23.0799Z" fill="#FCDD2D"/>
<path d="M111.002 14.3187C107.08 14.3187 103.896 17.4845 103.896 21.378C103.896 21.8518 103.958 22.3576 104.095 23.0191L115.989 50.6881L115.53 26.741L115.64 26.6503C117.213 25.3343 118.149 23.3673 118.149 21.378C118.149 17.4845 114.939 14.3187 111.002 14.3187ZM116.047 52.3411L103.518 23.1936C103.354 22.4379 103.282 21.8908 103.282 21.378C103.282 17.1614 106.748 13.7208 111.002 13.7208C115.276 13.7208 118.755 17.1614 118.755 21.378C118.755 23.4929 117.783 25.5897 116.144 27.0089L116.622 52.219L116.047 52.3411Z" fill="#264F90"/>
<path d="M79.3867 27.0512L75.8233 36.7081L79.4135 38.4189C79.5615 34.9221 80.6222 31.7472 83.2704 29.4824L79.3867 27.0512Z" fill="#FCDD2D"/>
<path d="M76.2074 36.5571L79.1373 37.9547C79.3759 34.3675 80.5977 31.5402 82.7789 29.5202L79.5448 27.5022L76.2074 36.5571ZM79.6962 38.8834L75.4531 36.8627L79.2245 26.6007L83.7746 29.4392L83.4711 29.7044C81.1406 31.6965 79.8825 34.6327 79.7123 38.4341L79.6962 38.8834Z" fill="#264F90"/>
<path d="M98.3281 29.1502V31.695L102.341 36.5039L107.231 33.2691L103.407 24.6657C101.588 26.6383 100.521 28.2543 98.3281 29.1502Z" fill="#FCDD2D"/>
<path d="M98.6432 31.5856L102.403 36.1057L106.859 33.1688L103.317 25.2101C103.075 25.4809 102.835 25.7488 102.615 26.0077C101.393 27.3927 100.341 28.5964 98.6432 29.3451V31.5856ZM102.282 36.9032L98.0312 31.797V28.9515L98.2148 28.8748C99.9012 28.1889 100.894 27.0515 102.152 25.619C102.476 25.2541 102.813 24.8668 103.18 24.4663L103.498 24.1293L107.607 33.3823L102.282 36.9032Z" fill="#264F90"/>
<path d="M89.8164 25.3887V16.0638L83.4326 16.0345L84.7067 13.9182H85.5001C89.1731 13.9182 92.0862 16.839 92.0862 20.4318C92.0862 22.3981 91.2692 24.2255 89.8164 25.3887Z" fill="#FCDD2D"/>
<path d="M83.9596 15.7388L89.6603 15.7715C88.5467 14.8031 87.0932 14.21 85.5002 14.21H84.8799L83.9596 15.7388ZM90.1166 16.2132V24.7168C91.1863 23.622 91.7878 22.1023 91.7878 20.4319C91.7878 18.8019 91.1535 17.3199 90.1166 16.2132ZM89.5075 26.0251V16.3619L82.9053 16.3319L84.5338 13.6141H85.5002C89.2954 13.6141 92.3962 16.6758 92.3962 20.4319C92.3962 22.5147 91.5198 24.4105 90.0057 25.6211L89.5075 26.0251Z" fill="#264F90"/>
<path d="M78.6016 9.77557V14.2608H82.2111L82.1846 15.516L86.2204 9.29272H82.2111V13.5749L78.6016 9.77557Z" fill="#FCDD2D"/>
<path d="M78.9013 13.9601H82.171L78.9013 10.532V13.9601ZM82.515 14.3187L82.5095 14.4555L85.671 9.59072H82.515V14.3187ZM81.8605 16.5746L81.9066 14.5567H78.3013V9.02553L81.9122 12.8193V8.99762H86.7714L81.8605 16.5746Z" fill="#264F90"/>
<path d="M88.1357 13.2679L88.1616 9.29219L87.6522 9.29237L85.4335 12.9134C86.4616 12.9773 87.0439 12.9134 88.1357 13.2679Z" fill="#FCDD2D"/>
<path d="M85.9489 12.6407C85.9782 12.6407 85.9998 12.6456 86.0285 12.6456C86.6446 12.6672 87.1407 12.6895 87.8357 12.8751L87.8573 9.59148H87.8196L85.9489 12.6407ZM88.4357 13.6852L88.0394 13.5534C87.2153 13.2826 86.7039 13.2596 86.0061 13.2387C85.8226 13.2303 85.6279 13.2226 85.4116 13.2059L84.9204 13.1842L87.4798 8.99838H88.4678L88.4357 13.6852Z" fill="#264F90"/>
<path d="M98.1534 6.00779C98.369 6.03779 98.5211 6.07059 98.7039 6.07059C100.256 6.07059 101.526 4.80904 101.526 3.28931C101.526 1.76122 100.256 0.508042 98.7039 0.508042C97.1549 0.508042 95.8731 1.76122 95.8731 3.28931C95.8731 3.82799 96.0587 4.33875 96.3329 4.7881L93.7749 6.8765L93.2328 5.474C93.9947 4.96185 94.5718 4.06453 94.5718 3.0758C94.5718 1.55468 93.2963 0.30011 91.7465 0.30011C90.1996 0.30011 88.9255 1.55468 88.9255 3.0758C88.9255 4.15593 89.5954 5.11396 90.5324 5.55494L90.0433 7.08652L87.3088 4.7881C87.6081 4.33875 87.7951 3.82799 87.7951 3.28931C87.7951 1.76122 86.5161 0.508042 84.9727 0.508042C83.4195 0.508042 82.1426 1.76122 82.1426 3.28931C82.1426 4.80904 83.4195 6.07059 84.9727 6.07059C85.002 6.07059 85.0564 6.03779 85.1241 6.03779L85.8812 8.48972L97.3935 8.46181L98.1534 6.00779Z" fill="#FCDD2D"/>
<path d="M85.1242 5.74047H85.351L86.1115 8.19449L97.1752 8.16309L97.9441 5.67907L98.3488 5.73349C99.9188 5.98539 101.222 4.77687 101.222 3.28854C101.222 1.91186 100.09 0.805913 98.704 0.805913C97.3099 0.805913 96.1795 1.91186 96.1795 3.28854C96.1795 3.73371 96.3233 4.18516 96.5898 4.63173L96.721 4.84525L93.6557 7.37602L92.8679 5.35601L93.0696 5.22832C93.8064 4.72732 94.2635 3.90955 94.2635 3.07503C94.2635 1.70881 93.1394 0.593096 91.7466 0.593096C90.3553 0.593096 89.2277 1.70881 89.2277 3.07503C89.2277 4.01212 89.7866 4.88013 90.6728 5.2946L90.9037 5.40624L90.1997 7.61047L86.9098 4.84106L87.0584 4.61917C87.3459 4.19214 87.4924 3.74488 87.4924 3.28854C87.4924 1.91186 86.3592 0.805913 84.9728 0.805913C83.5822 0.805913 82.4497 1.91186 82.4497 3.28854C82.4497 4.65615 83.5822 5.77048 84.9728 5.77048C84.9686 5.7635 85.0342 5.74047 85.1242 5.74047ZM85.6538 8.78899L84.9058 6.36427C83.2109 6.33636 81.8398 4.96526 81.8398 3.28854C81.8398 1.58671 83.2458 0.207932 84.9728 0.207932C86.6907 0.207932 88.1008 1.58671 88.1008 3.28854C88.1008 3.77767 87.9634 4.27238 87.701 4.72384L89.8934 6.56453L90.1655 5.70698C89.2235 5.15784 88.6193 4.14818 88.6193 3.07503C88.6193 1.38017 90.0225 0 91.7466 0C93.4708 0 94.8761 1.38017 94.8761 3.07503C94.8761 4.02956 94.3884 4.96177 93.5992 5.5758L93.9104 6.38032L95.9465 4.71058C95.7029 4.23819 95.5753 3.76721 95.5753 3.28854C95.5753 1.58671 96.9777 0.207932 98.704 0.207932C100.423 0.207932 101.833 1.58671 101.833 3.28854C101.833 4.9834 100.423 6.36427 98.704 6.36427C98.5819 6.36427 98.48 6.35939 98.3698 6.34403L97.6211 8.76108L85.6538 8.78899Z" fill="#264F90"/>
<path d="M98.3281 33.214V39.3397L120.578 59.8238L98.3281 33.214Z" fill="#FCDD2D"/>
<path d="M98.6432 39.2134L117.4 56.4927L98.6432 34.0535V39.2134ZM120.375 60.0415L98.0312 39.4702V32.3844L120.821 59.6375L120.375 60.0415Z" fill="#264F90"/>
<path d="M99.2476 41.6164L118.183 71.0682L119.851 60.7469L99.2476 41.6164Z" fill="#FCDD2D"/>
<path d="M100.782 43.4537L118.01 70.2414L119.532 60.8642L100.782 43.4537ZM118.355 71.8944L98.9966 41.7728L99.4571 41.4016L120.174 60.6423L118.355 71.8944Z" fill="#264F90"/>
<path d="M87.4922 50.6162L89.5953 59.916L86.0332 59.8832L86.5168 61.4657C88.0134 61.1106 89.3197 60.7805 90.9252 60.747L90.8966 51.6029C89.5339 51.4801 88.5228 51.1549 87.4922 50.6162Z" fill="#FCDD2D"/>
<path d="M86.4408 60.179L86.7325 61.1098C87.9961 60.807 89.2102 60.5167 90.6204 60.4637L90.5939 51.8673C89.6184 51.764 88.7853 51.5365 87.9298 51.1549L89.9673 60.209L86.4408 60.179ZM86.3131 61.8166L85.6279 59.5838L89.2102 59.6075L87.0583 50.0447L87.6368 50.3448C88.7064 50.9086 89.6938 51.1933 90.9197 51.3056L91.1968 51.3279L91.2323 61.04L90.9323 61.0428C89.4203 61.0673 88.195 61.3652 86.7806 61.7078L86.3131 61.8166Z" fill="#264F90"/>
<path d="M91.9858 51.5673V60.8391C93.5642 61.172 94.7811 61.3778 96.1236 62.0609L96.7208 59.8832L93.3541 59.8546L94.8718 51.5094C93.8091 51.6287 92.9641 51.688 91.9858 51.5673Z" fill="#FCDD2D"/>
<path d="M92.2877 60.5948L92.4615 60.6318C93.7614 60.9012 94.8045 61.1161 95.9307 61.6359L96.3326 60.1769L92.9959 60.149L94.5045 51.8442C93.7816 51.9126 93.0127 51.958 92.2877 51.8987V60.5948ZM96.3173 62.4955L95.9775 62.326C94.7983 61.721 93.7118 61.4977 92.3387 61.2193L91.6855 61.0777V51.2337L92.024 51.2735C92.9429 51.3802 93.9316 51.3188 94.8422 51.2156L95.2406 51.1653L93.7153 59.5615L97.1148 59.5873L96.3173 62.4955Z" fill="#264F90"/>
<path d="M95.7279 10.5103C95.8521 10.8097 95.9149 11.1034 95.9149 11.3741C95.9149 12.7215 94.7852 13.7989 93.4211 13.7989C92.0528 13.7989 90.958 12.7215 90.958 11.3741C90.958 11.1034 91.0222 10.8097 91.1136 10.5103H95.7279Z" fill="#FCDD2D"/>
<path d="M91.3423 10.8028C91.2893 11.0233 91.2648 11.2082 91.2648 11.3742C91.2648 12.55 92.2305 13.4996 93.4216 13.4996C94.6259 13.4996 95.6084 12.55 95.6084 11.3742C95.6084 11.1942 95.5784 11.0037 95.5198 10.8028H91.3423ZM93.4216 14.0913C91.8963 14.0913 90.6592 12.8751 90.6592 11.3742C90.6592 11.0965 90.7129 10.7853 90.8204 10.4218L90.886 10.2118H95.9412L96.0103 10.4022C96.1519 10.7379 96.2175 11.063 96.2175 11.3742C96.2175 12.8751 94.9651 14.0913 93.4216 14.0913Z" fill="#264F90"/>
<path d="M93.499 11.2081V13.1618C94.4256 13.0446 95.1088 12.5652 95.1541 11.1781L93.499 11.2081Z" fill="#264F90"/>
<path d="M140.072 95.2868H137.459V104.807H140.072V95.2868Z" fill="#264F90"/>
<path d="M140.072 91.0605H137.459V93.6632H140.072V91.0605Z" fill="#264F90"/>
<path d="M157.68 98.8203L156.207 98.4665C155.046 98.1797 155.046 98.0995 155.046 97.8637C155.046 97.2224 156.175 97.2147 156.223 97.2147C157.708 97.2147 157.724 97.8211 157.732 98.1114L157.747 98.664H160.297V98.096C160.297 96.8819 159.471 94.8277 156.375 94.8277C154.046 94.8277 152.481 96.1618 152.481 98.1469C152.481 99.4915 153.309 100.378 154.947 100.782L156.656 101.19C157.967 101.511 157.967 101.671 157.967 101.873C157.967 102.63 156.769 102.668 156.529 102.668C154.865 102.668 154.798 101.953 154.75 101.431L154.702 100.916H152.179L152.204 101.508C152.305 103.864 153.763 105.058 156.537 105.058C158.919 105.058 160.582 103.653 160.582 101.641C160.582 99.7846 159.117 99.1733 157.68 98.8203Z" fill="#264F90"/>
<path d="M167.778 101.091C167.59 102.064 166.997 102.668 166.23 102.668C165.729 102.668 164.398 102.668 164.398 99.9269C164.398 99.3024 164.532 97.2657 166.25 97.2657C167.155 97.2657 167.625 97.685 167.774 98.6256L167.851 99.1043H170.383L170.33 98.4888C170.182 96.7186 169.091 94.8277 166.474 94.8277C163.528 94.8277 161.698 96.8777 161.698 100.178C161.698 103.097 163.501 105.058 166.183 105.058C168.931 105.058 170.126 103.097 170.33 101.262L170.399 100.632H167.868L167.778 101.091Z" fill="#264F90"/>
<path d="M180.086 98.359C180.07 96.1283 178.7 94.8067 176.423 94.8242C175.534 94.8311 174.873 95.1235 174.388 95.4745L174.361 91.8845L171.754 91.9047L171.853 104.838L174.46 104.819L174.42 99.5703C174.406 97.6759 175.429 97.2705 176.289 97.2635C177.212 97.2565 177.468 97.5454 177.475 98.606L177.523 104.795L180.135 104.776L180.086 98.359Z" fill="#264F90"/>
<path d="M144.665 98.6954C144.905 97.8881 145.634 97.2657 146.446 97.2657C147.109 97.2657 147.972 97.4282 148.247 98.6954H144.665ZM146.651 94.8277C143.697 94.8277 141.862 96.8777 141.862 100.178C141.862 103.097 143.669 105.058 146.358 105.058C147.884 105.058 148.553 104.699 149.056 104.365C149.995 103.754 150.505 102.822 150.722 102.124H147.892C147.613 102.41 147.178 102.668 146.558 102.668C145.405 102.668 144.766 102.113 144.615 100.974H148.301L148.3 100.987H150.933L150.935 100.974L150.99 100.406C150.99 96.9133 149.367 94.8277 146.651 94.8277Z" fill="#264F90"/>
<path d="M126.388 91.0605V104.807H129.164V99.4532H135.059V96.898H129.164V93.6032H135.863V91.0605H126.388Z" fill="#264F90"/>
</svg>
